<?xml version="1.0" standalone="no"?>
<!DOCTYPE svg PUBLIC "-//W3C//DTD SVG 20010904//EN" "http://www.w3.org/TR/2001/REC-SVG-20010904/DTD/svg10.dtd">
<svg version="1.0" xmlns="http://www.w3.org/2000/svg"
    width="720.000000pt" height="720.000000pt" viewBox="0 0 720.000000 720.000000"
    preserveAspectRatio="xMidYMid meet">

    <g transform="translate(0.000000,720.000000) scale(0.100000,-0.100000)"
        fill="#E60023" stroke="none">
        <path
            d="M3479 7146 c-2 -2 -60 -6 -128 -10 -417 -22 -924 -161 -1326 -362
-629 -315 -1157 -808 -1492 -1394 -231 -403 -369 -795 -437 -1243 -31 -202
-37 -277 -40 -497 -16 -939 361 -1864 1034 -2541 80 -80 161 -159 180 -175
317 -266 566 -422 914 -576 315 -139 674 -236 1019 -275 154 -17 544 -23 685
-10 353 32 694 112 1007 237 143 57 325 140 325 149 -1 3 -26 22 -56 41 -35
22 -175 158 -376 365 -177 182 -352 361 -389 399 l-67 69 -144 -36 c-263 -66
-590 -96 -858 -77 -601 41 -1129 270 -1516 657 -455 455 -704 1087 -704 1782
0 218 13 367 46 540 190 1001 928 1713 1944 1875 462 73 959 29 1355 -121 420
-160 761 -414 1022 -763 48 -64 103 -151 178 -280 107 -185 214 -501 259 -763
134 -775 -40 -1524 -481 -2072 -79 -98 -249 -270 -328 -332 l-39 -31 34 -38
c18 -22 199 -207 402 -413 l368 -373 27 18 c53 34 380 370 467 479 626 788
889 1757 745 2740 -121 828 -549 1610 -1181 2158 -561 488 -1221 774 -1973
857 -100 11 -468 24 -476 16z" />
        <path
            d="M3365 5330 c-209 -21 -359 -62 -531 -144 -141 -68 -238 -134 -343
-232 -245 -231 -397 -552 -453 -954 -19 -143 -16 -507 6 -660 60 -415 202
-726 441 -965 155 -156 322 -258 537 -331 378 -127 946 -83 1263 98 177 101
318 218 424 352 148 186 255 441 306 731 28 163 37 415 20 603 -69 770 -429
1272 -1039 1448 -66 19 -155 39 -196 45 -114 14 -334 19 -435 9z" />
    </g>
</svg>